# xmcd
#
# Track frame offsets: 
#        150
#        18641
#        34498
#        56783
#        76477
#        92357
#        109758
#        129809
#        149564
#        166011
#        183178
#        202520
#        218217
#
# Disc length: 3162 seconds
#
# Revision: 0
# Processed by: cddbd v1.5.2PL0 Copyright (c) Steve Scherf et al.
# Submitted via: ExactAudioCopy v0.99pb5
#
DISCID=a80c580d
DTITLE=Juras Jadranka - Sakura
DYEAR=2009
DGENRE=Polka
TTITLE0=Drugace ne znam
TTITLE1=Nor svet
TTITLE2=Ljubezen
TTITLE3=Podej naprej
TTITLE4=Ne zluzs si me feat. Edo Maajka
TTITLE5=Ce ne bomo sami
TTITLE6=Imej se rad
TTITLE7=Ta svet je moj
TTITLE8=Dej mi vse
TTITLE9=Zivim kot ti
TTITLE10=Ko se spet srecava
TTITLE11=La la la la la
TTITLE12=Kr neki
EXTD=
EXTT0=
EXTT1=
EXTT2=
EXTT3=
EXTT4=
EXTT5=
EXTT6=
EXTT7=
EXTT8=
EXTT9=
EXTT10=
EXTT11=
EXTT12=
PLAYORDER=
